sfk_cyclingleg_states
version=1
nRows=12
nColumns=53
inDegrees=yes

# SIMM Motion File Header:
name sfk_cyclingleg_states
datacolumns 53
datarows 12
otherdata 1
range 0.45899653 0.46503062
endheader
time	/jointset/bb/crank_angle/value	/jointset/bb/crank_angle/speed	/jointset/spindle/pedal_angle_r/value	/jointset/spindle/pedal_angle_r/speed	/jointset/ground_pelvis/pelvis_tilt/value	/jointset/ground_pelvis/pelvis_tilt/speed	/jointset/ground_pelvis/pelvis_list/value	/jointset/ground_pelvis/pelvis_list/speed	/jointset/ground_pelvis/pelvis_rotation/value	/jointset/ground_pelvis/pelvis_rotation/speed	/jointset/ground_pelvis/pelvis_tx/value	/jointset/ground_pelvis/pelvis_tx/speed	/jointset/ground_pelvis/pelvis_ty/value	/jointset/ground_pelvis/pelvis_ty/speed	/jointset/ground_pelvis/pelvis_tz/value	/jointset/ground_pelvis/pelvis_tz/speed	/jointset/hip_r/hip_angle_r/value	/jointset/hip_r/hip_angle_r/speed	/jointset/hip_r/hip_adduction_r/value	/jointset/hip_r/hip_adduction_r/speed	/jointset/hip_r/hip_rotation_r/value	/jointset/hip_r/hip_rotation_r/speed	/jointset/knee_r/knee_angle_r/value	/jointset/knee_r/knee_angle_r/speed	/jointset/knee_r/tib_tx_r/value	/jointset/knee_r/tib_tx_r/speed	/jointset/knee_r/tib_ty_r/value	/jointset/knee_r/tib_ty_r/speed	/jointset/tib_pat_r/pat_angle_r/value	/jointset/tib_pat_r/pat_angle_r/speed	/jointset/tib_pat_r/pat_tx_r/value	/jointset/tib_pat_r/pat_tx_r/speed	/jointset/tib_pat_r/pat_ty_r/value	/jointset/tib_pat_r/pat_ty_r/speed	/jointset/ankle_r/ankle_angle_r/value	/jointset/ankle_r/ankle_angle_r/speed	/jointset/subtalar_r/subtalar_angle_r/value	/jointset/subtalar_r/subtalar_angle_r/speed	/jointset/mtp_r/mtp_angle_r/value	/jointset/mtp_r/mtp_angle_r/speed	/forceset/bifemlh_r/activation	/forceset/bifemlh_r/fiber_length	/forceset/bifemsh_r/activation	/forceset/bifemsh_r/fiber_length	/forceset/glut_max2_r/activation	/forceset/glut_max2_r/fiber_length	/forceset/vas_int_r/activation	/forceset/vas_int_r/fiber_length	/forceset/med_gas_r/activation	/forceset/med_gas_r/fiber_length	/forceset/tib_ant_r/activation	/forceset/tib_ant_r/fiber_length
      0.45899653	   -230.51684265	   -480.13863232	    216.69906433	    312.50793005	     -0.00000000	     -0.00000000	     -0.00000000	     -0.00000000	      0.00000000	      0.00000000	     -0.00000000	     -0.00000000	     -0.00000000	     -0.00000000	     -0.00000000	     -0.00000000	     45.14837822	     96.27101125	      4.34439125	     -1.15318399	     -0.82745635	    -21.03269023	    -80.37388839	   -276.83641010	      0.00479918	     -0.01889559	     -0.48261630	     -0.09458461	     17.54619354	      0.27222988	      0.03627833	     -0.09671942	     -0.02247680	     -0.00182442	     21.88524925	     13.99588751	     -0.00000000	     -0.00000000	      0.00000000	      0.00000000	     -0.03365363	      0.11232207	     -0.03365363	      0.15586692	     -0.03365363	      0.13399657	     -0.03365363	      0.14258623	      0.05000000	      0.10000000	      0.05000000	      0.10000000
      0.45957178	   -230.79304335	   -480.13863232	    216.87898781	    313.03932308	     -0.00000000	     -0.00000000	     -0.00000000	     -0.00000000	      0.00000000	      0.00000000	     -0.00000000	     -0.00000000	     -0.00000000	     -0.00000000	     -0.00000000	     -0.00000000	     45.20385065	     96.59195775	      4.34372515	     -1.16265783	     -0.83955735	    -21.03927191	    -80.53314734	   -276.86446585	      0.00478823	     -0.01919056	     -0.48267073	     -0.09463482	     17.54635078	      0.27457735	      0.03622265	     -0.09687091	     -0.02247790	     -0.00200125	     21.89337034	     14.23903185	     -0.00000000	     -0.00000000	      0.00000000	      0.00000000	     -0.03372769	      0.11231173	     -0.03372769	      0.15579417	     -0.03372769	      0.13403657	     -0.03372769	      0.14265530	      0.05000000	      0.10000000	      0.05000000	      0.10000000
      0.46015988	   -231.07541436	   -480.13863232	    217.06324783	    313.58616760	     -0.00000000	     -0.00000000	     -0.00000000	     -0.00000000	      0.00000000	      0.00000000	     -0.00000000	     -0.00000000	     -0.00000000	     -0.00000000	     -0.00000000	     -0.00000000	     45.26075303	     96.91953857	      4.34303854	     -1.17232675	     -0.85193257	    -21.04592771	    -80.69597963	   -276.88908269	      0.00477685	     -0.01949238	     -0.48272640	     -0.09468417	     17.54651314	      0.27768730	      0.03616563	     -0.09702474	     -0.02247913	     -0.00218072	     21.90181746	     14.48765235	     -0.00000000	     -0.00000000	      0.00000000	      0.00000000	     -0.03380341	      0.11230154	     -0.03380341	      0.15571997	     -0.03380341	      0.13407758	     -0.03380341	      0.14281322	      0.05000000	      0.10000000	      0.05000000	      0.10000000
      0.46074798	   -231.35778538	   -480.13863232	    217.24783051	    314.13662326	     -0.00000000	     -0.00000000	     -0.00000000	     -0.00000000	      0.00000000	      0.00000000	     -0.00000000	     -0.00000000	     -0.00000000	     -0.00000000	     -0.00000000	     -0.00000000	     45.31784790	     97.24658957	      4.34234626	     -1.18197840	     -0.86431168	    -21.05251069	    -80.85882519	   -276.90960416	      0.00476530	     -0.01979445	     -0.48278210	     -0.09473154	     17.54667754	      0.28151535	      0.03610852	     -0.09717751	     -0.02248046	     -0.00235886	     21.91041082	     14.73631250	     -0.00000000	     -0.00000000	      0.00000000	      0.00000000	     -0.03387913	      0.11229174	     -0.03387913	      0.15564594	     -0.03387913	      0.13411872	     -0.03387913	      0.14284742	      0.05000000	      0.10000000	      0.05000000	      0.10000000
      0.46138672	   -231.66446732	   -480.13863232	    217.44867296	    314.73855178	     -0.00000000	     -0.00000000	     -0.00000000	     -0.00000000	      0.00000000	      0.00000000	     -0.00000000	     -0.00000000	     -0.00000000	     -0.00000000	     -0.00000000	     -0.00000000	     45.38007611	     97.60121156	      4.34158794	     -1.19244085	     -0.87776094	    -21.05957891	    -81.03570329	   -276.92727042	      0.00475255	     -0.02012279	     -0.48284262	     -0.09478074	     17.54685890	      0.28648661	      0.03604640	     -0.09734222	     -0.02248203	     -0.00255082	     21.91990969	     15.00642007	     -0.00000000	     -0.00000000	      0.00000000	      0.00000000	     -0.03396137	      0.11228155	     -0.03396137	      0.15556575	     -0.03396137	      0.13416354	     -0.03396137	      0.14297099	      0.05000000	      0.10000000	      0.05000000	      0.10000000
      0.46202546	   -231.97114925	   -480.13863232	    217.64990124	    315.34471942	     -0.00000000	     -0.00000000	     -0.00000000	     -0.00000000	      0.00000000	      0.00000000	     -0.00000000	     -0.00000000	     -0.00000000	     -0.00000000	     -0.00000000	     -0.00000000	     45.44253064	     97.95523689	      4.34082295	     -1.20288162	     -0.89121470	    -21.06656322	    -81.21259113	   -276.94014212	      0.00473959	     -0.02045138	     -0.48290318	     -0.09482760	     17.54704370	      0.29230507	      0.03598417	     -0.09750566	     -0.02248372	     -0.00274118	     21.92958111	     15.27656166	     -0.00000000	     -0.00000000	      0.00000000	      0.00000000	     -0.03404360	      0.11227182	     -0.03404360	      0.15548578	     -0.03404360	      0.13420850	     -0.03404360	      0.14305304	      0.05000000	      0.10000000	      0.05000000	      0.10000000
      0.46257472	   -232.23487046	   -480.13863232	    217.82325159	    315.86935567	     -0.00000000	     -0.00000000	     -0.00000000	     -0.00000000	      0.00000000	      0.00000000	     -0.00000000	     -0.00000000	     -0.00000000	     -0.00000000	     -0.00000000	     -0.00000000	     45.49641708	     98.25920331	      4.34015979	     -1.21184198	     -0.90278736	    -21.07250279	    -81.36470558	   -276.94739049	      0.00472828	     -0.02073413	     -0.48295527	     -0.09486603	     17.54720578	      0.29798586	      0.03593058	     -0.09764520	     -0.02248527	     -0.00290358	     21.93803572	     15.50888335	     -0.00000000	     -0.00000000	      0.00000000	      0.00000000	     -0.03411432	      0.11226383	     -0.03411432	      0.15541718	     -0.03411432	      0.13424728	     -0.03411432	      0.14314901	      0.05000000	      0.10000000	      0.05000000	      0.10000000
      0.46312398	   -232.49859167	   -480.13863232	    217.99689096	    316.39711238	     -0.00000000	     -0.00000000	     -0.00000000	     -0.00000000	      0.00000000	      0.00000000	     -0.00000000	     -0.00000000	     -0.00000000	     -0.00000000	     -0.00000000	     -0.00000000	     45.55047037	     98.56274809	      4.33949172	     -1.22078540	     -0.91436327	    -21.07838160	    -81.51682304	   -276.95111830	      0.00471682	     -0.02101703	     -0.48300739	     -0.09490273	     17.54737116	      0.30429284	      0.03587691	     -0.09778379	     -0.02248691	     -0.00306478	     21.94661795	     15.74122111	     -0.00000000	     -0.00000000	      0.00000000	      0.00000000	     -0.03418504	      0.11225618	     -0.03418504	      0.15534875	     -0.03418504	      0.13428617	     -0.03418504	      0.14325948	      0.05000000	      0.10000000	      0.05000000	      0.10000000
      0.46356979	   -232.71264548	   -480.13863232	    218.13804199	    316.82776496	     -0.00000000	     -0.00000000	     -0.00000000	     -0.00000000	      0.00000000	      0.00000000	     -0.00000000	     -0.00000000	     -0.00000000	     -0.00000000	     -0.00000000	     -0.00000000	     45.59446615	     98.80882146	      4.33894586	     -1.22803171	     -0.92376142	    -21.08310893	    -81.64029265	   -276.95156325	      0.00470740	     -0.02124676	     -0.48304970	     -0.09493125	     17.54750805	      0.30987223	      0.03583329	     -0.09789559	     -0.02248831	     -0.00319474	     21.95367769	     15.92981096	     -0.00000000	     -0.00000000	      0.00000000	      0.00000000	     -0.03424244	      0.11225023	     -0.03424244	      0.15529333	     -0.03424244	      0.13431781	     -0.03424244	      0.14332488	      0.05000000	      0.10000000	      0.05000000	      0.10000000
      0.46414959	   -232.99103019	   -480.13863232	    218.32190204	    317.39090772	     -0.00000000	     -0.00000000	     -0.00000000	     -0.00000000	      0.00000000	      0.00000000	     -0.00000000	     -0.00000000	     -0.00000000	     -0.00000000	     -0.00000000	     -0.00000000	     45.65184825	     99.12844954	      4.33823112	     -1.23743830	     -0.93598719	    -21.08919808	    -81.80086871	   -276.94869269	      0.00469499	     -0.02154567	     -0.48310476	     -0.09496664	     17.54768996	      0.31774503	      0.03577649	     -0.09804005	     -0.02249021	     -0.00336255	     21.96298491	     16.17508689	     -0.00000000	     -0.00000000	      0.00000000	      0.00000000	     -0.03431709	      0.11224283	     -0.03431709	      0.15522141	     -0.03431709	      0.13435906	     -0.03431709	      0.14341461	      0.05000000	      0.10000000	      0.05000000	      0.10000000
      0.46459011	   -233.20253624	   -480.13863232	    218.46181070	    317.82107348	     -0.00000000	     -0.00000000	     -0.00000000	     -0.00000000	      0.00000000	      0.00000000	     -0.00000000	     -0.00000000	     -0.00000000	     -0.00000000	     -0.00000000	     -0.00000000	     45.69556879	     99.37099465	      4.33768444	     -1.24457154	     -0.94527821	    -21.09378017	    -81.92286652	   -276.94391176	      0.00468545	     -0.02177285	     -0.48314659	     -0.09499225	     17.54783133	      0.32419225	      0.03573328	     -0.09814910	     -0.02249172	     -0.00348914	     21.97015125	     16.36144148	     -0.00000000	     -0.00000000	      0.00000000	      0.00000000	     -0.03437380	      0.11223746	     -0.03437380	      0.15516690	     -0.03437380	      0.13439049	     -0.03437380	      0.14355959	      0.05000000	      0.10000000	      0.05000000	      0.10000000
      0.46503062	   -233.41404230	   -480.13863232	    218.60190930	    318.25323163	     -0.00000000	     -0.00000000	     -0.00000000	     -0.00000000	      0.00000000	      0.00000000	     -0.00000000	     -0.00000000	     -0.00000000	     -0.00000000	     -0.00000000	     -0.00000000	     45.73939612	     99.61328891	      4.33713462	     -1.25169286	     -0.95457125	    -21.09832433	    -82.04486172	   -276.93689172	      0.00467581	     -0.02200010	     -0.48318845	     -0.09501676	     17.54797564	      0.33104139	      0.03569002	     -0.09825754	     -0.02249328	     -0.00361493	     21.97739968	     16.54779654	     -0.00000000	     -0.00000000	      0.00000000	      0.00000000	     -0.03443052	      0.11223232	     -0.03443052	      0.15511250	     -0.03443052	      0.13442198	     -0.03443052	      0.14357520	      0.05000000	      0.10000000	      0.05000000	      0.10000000
